# xmcd
#
# Track frame offsets:
#       150
#       11291
#       39421
#       58501
#       81961
#       104646
#       123535
#       133320
#       148805
#       169125
#       187172
#       202212
#       217500
#       231504
#       242314
#       259901
#       276521
#       290976
#       305924
#       325999
#
# Disc length: 4520 seconds
#
# Revision: 0
# Processed by: cddbd v1.4PL0 Copyright (c) Steve Scherf et al.
# Submitted via: WhereIsIt 3.11
#
DISCID=4511a614
DTITLE=Various Artist - Le Blues Vol 1
DYEAR=1900
DGENRE=
TTITLE0=John Lee Hooker: I Need Some Money
TTITLE1=B.B. King: Why I Sing The Blues
TTITLE2=Buddy Guy: T-Bone Shuffle
TTITLE3=Muddy Waters: Honey Bee
TTITLE4=Howlin' Wolf: Highway 49
TTITLE5=Albert King: The Sky Is Crying
TTITLE6=Freddie King: My Feeling For The Blues
TTITLE7=Otis Rush: It Takes Time
TTITLE8=Sippie Wallace: Suitcase Blues
TTITLE9=Blind Willie McTell: I Got To Cross The River Jordan
TTITLE10=Mississippie Fred McDowell: Shake 'em On Down
TTITLE11=Champion Jack Dupree: Frankie and Johnny
TTITLE12=T-Bone Walker: Call It Stormy Monday
TTITLE13=Guitar Slim: Down Through The Years
TTITLE14=Lightnin' Hopkins: Death Bells
TTITLE15=Brownie McGee: The Killing Floor
TTITLE16=Sonny Terry: One Monkey Don't Stop The Show
TTITLE17=Willie Dixon with Memphis Slim: Youth To You
TTITLE18=Memphis Slim: If You See Kay
TTITLE19=Ray Charles: Ray's Blues
EXTD=
EXTT0=
EXTT1=
EXTT2=
EXTT3=
EXTT4=
EXTT5=
EXTT6=
EXTT7=
EXTT8=
EXTT9=
EXTT10=
EXTT11=
EXTT12=
EXTT13=
EXTT14=
EXTT15=
EXTT16=
EXTT17=
EXTT18=
EXTT19=
PLAYORDER=
